<?xml version="1.0" standalone="no"?><!DOCTYPE svg PUBLIC "-//W3C//DTD SVG 1.1//EN"
        "http://www.w3.org/Graphics/SVG/1.1/DTD/svg11.dtd">
<svg t="1773741525848" class="icon" viewBox="0 0 1024 1024" version="1.1" xmlns="http://www.w3.org/2000/svg"
     p-id="5853" width="200" height="200">
    <path d="M960.525938 511.850156a448 448 0 1 1-896 0 448 448 0 0 1 896 0z m-76.8 0a371.2 371.2 0 1 0-742.4 0 371.2 371.2 0 0 0 742.4 0z m-179.584-190.72l-68.48 228.224-7.36 24.32c-3.648 12.16-19.456 15.168-31.104 5.888L422.733938 441.130156c-11.648-9.28-12.288-25.344-1.28-31.68l22.015999-12.608 206.72-118.464 1.152-0.64 31.104-17.92c15.552-8.832 37.568 8.64 32.384 25.728l-10.24 34.368-0.448 1.28zM512.781938 430.890156l73.984 58.752 36.672-122.176-110.656 63.424z m74.368 192.256l-22.656 11.776-184.576 95.68-0.448 0.192-31.36 16.256c-15.36 8-36.288-8.576-32-25.344l8.768-34.24 0.128-0.512 51.328-201.408 6.272-24.768c3.2-12.672 19.392-16.064 31.36-6.592l172.544 136.96c11.904 9.472 12.224 25.984 0.64 32z m-160.256-76.928l-25.792 101.312 92.8-48.128-67.008-53.184z"
          fill="#000000" p-id="5854"></path>
</svg>